<mxfile host="Electron" agent="Mozilla/5.0 (X11; Linux x86_64) AppleWebKit/537.36 (KHTML, like Gecko) draw.io/26.0.4 Chrome/128.0.6613.186 Electron/32.2.5 Safari/537.36" version="26.0.4">
  <diagram name="Page-1" id="PGU914hxCLg8ACNoU49w">
    <mxGraphModel dx="1114" dy="1198" grid="1" gridSize="10" guides="1" tooltips="1" connect="1" arrows="1" fold="1" page="1" pageScale="1" pageWidth="850" pageHeight="1100" math="0" shadow="0">
      <root>
        <mxCell id="0" />
        <mxCell id="1" parent="0" />
        <mxCell id="KCcxgoW47jPmH_KGl_aa-1" value="S3 Bucket" style="sketch=0;points=[[0,0,0],[0.25,0,0],[0.5,0,0],[0.75,0,0],[1,0,0],[0,1,0],[0.25,1,0],[0.5,1,0],[0.75,1,0],[1,1,0],[0,0.25,0],[0,0.5,0],[0,0.75,0],[1,0.25,0],[1,0.5,0],[1,0.75,0]];outlineConnect=0;fontColor=#232F3E;fillColor=#7AA116;strokeColor=#ffffff;dashed=0;verticalLabelPosition=bottom;verticalAlign=top;align=center;html=1;fontSize=12;fontStyle=0;aspect=fixed;shape=mxgraph.aws4.resourceIcon;resIcon=mxgraph.aws4.s3;" vertex="1" parent="1">
          <mxGeometry x="180" y="678" width="78" height="78" as="geometry" />
        </mxCell>
        <mxCell id="KCcxgoW47jPmH_KGl_aa-2" value="Amazon CloudFront" style="sketch=0;points=[[0,0,0],[0.25,0,0],[0.5,0,0],[0.75,0,0],[1,0,0],[0,1,0],[0.25,1,0],[0.5,1,0],[0.75,1,0],[1,1,0],[0,0.25,0],[0,0.5,0],[0,0.75,0],[1,0.25,0],[1,0.5,0],[1,0.75,0]];outlineConnect=0;fontColor=#232F3E;fillColor=#8C4FFF;strokeColor=#ffffff;dashed=0;verticalLabelPosition=bottom;verticalAlign=top;align=center;html=1;fontSize=12;fontStyle=0;aspect=fixed;shape=mxgraph.aws4.resourceIcon;resIcon=mxgraph.aws4.cloudfront;" vertex="1" parent="1">
          <mxGeometry x="320" y="678" width="78" height="78" as="geometry" />
        </mxCell>
        <mxCell id="KCcxgoW47jPmH_KGl_aa-3" value="EC2 Instance&lt;div&gt;(Public IP)&lt;/div&gt;" style="sketch=0;outlineConnect=0;fontColor=#232F3E;gradientColor=none;fillColor=#ED7100;strokeColor=none;dashed=0;verticalLabelPosition=bottom;verticalAlign=top;align=center;html=1;fontSize=12;fontStyle=0;aspect=fixed;pointerEvents=1;shape=mxgraph.aws4.instance2;" vertex="1" parent="1">
          <mxGeometry x="460" y="678" width="48" height="48" as="geometry" />
        </mxCell>
        <mxCell id="KCcxgoW47jPmH_KGl_aa-4" value="Application Load Balancer" style="sketch=0;outlineConnect=0;fontColor=#232F3E;gradientColor=none;fillColor=#8C4FFF;strokeColor=none;dashed=0;verticalLabelPosition=bottom;verticalAlign=top;align=center;html=1;fontSize=12;fontStyle=0;aspect=fixed;pointerEvents=1;shape=mxgraph.aws4.application_load_balancer;" vertex="1" parent="1">
          <mxGeometry x="570" y="678" width="78" height="78" as="geometry" />
        </mxCell>
        <mxCell id="KCcxgoW47jPmH_KGl_aa-8" style="edgeStyle=orthogonalEdgeStyle;rounded=0;orthogonalLoop=1;jettySize=auto;html=1;" edge="1" parent="1" source="KCcxgoW47jPmH_KGl_aa-5" target="KCcxgoW47jPmH_KGl_aa-4">
          <mxGeometry relative="1" as="geometry">
            <Array as="points">
              <mxPoint x="547" y="558" />
              <mxPoint x="609" y="558" />
            </Array>
          </mxGeometry>
        </mxCell>
        <mxCell id="KCcxgoW47jPmH_KGl_aa-9" style="edgeStyle=orthogonalEdgeStyle;rounded=0;orthogonalLoop=1;jettySize=auto;html=1;" edge="1" parent="1" source="KCcxgoW47jPmH_KGl_aa-5" target="KCcxgoW47jPmH_KGl_aa-3">
          <mxGeometry relative="1" as="geometry">
            <Array as="points">
              <mxPoint x="547" y="558" />
              <mxPoint x="484" y="558" />
            </Array>
          </mxGeometry>
        </mxCell>
        <mxCell id="KCcxgoW47jPmH_KGl_aa-10" style="edgeStyle=orthogonalEdgeStyle;rounded=0;orthogonalLoop=1;jettySize=auto;html=1;" edge="1" parent="1" source="KCcxgoW47jPmH_KGl_aa-5" target="KCcxgoW47jPmH_KGl_aa-2">
          <mxGeometry relative="1" as="geometry">
            <Array as="points">
              <mxPoint x="547" y="558" />
              <mxPoint x="359" y="558" />
            </Array>
          </mxGeometry>
        </mxCell>
        <mxCell id="KCcxgoW47jPmH_KGl_aa-11" style="edgeStyle=orthogonalEdgeStyle;rounded=0;orthogonalLoop=1;jettySize=auto;html=1;" edge="1" parent="1" source="KCcxgoW47jPmH_KGl_aa-5" target="KCcxgoW47jPmH_KGl_aa-1">
          <mxGeometry relative="1" as="geometry">
            <Array as="points">
              <mxPoint x="547" y="558" />
              <mxPoint x="219" y="558" />
            </Array>
          </mxGeometry>
        </mxCell>
        <mxCell id="KCcxgoW47jPmH_KGl_aa-5" value="Public Hosted Zone" style="sketch=0;outlineConnect=0;fontColor=#232F3E;gradientColor=none;fillColor=#8C4FFF;strokeColor=none;dashed=0;verticalLabelPosition=top;verticalAlign=bottom;align=center;html=1;fontSize=12;fontStyle=0;aspect=fixed;pointerEvents=1;shape=mxgraph.aws4.hosted_zone;labelPosition=center;" vertex="1" parent="1">
          <mxGeometry x="508" y="370" width="78" height="77" as="geometry" />
        </mxCell>
        <mxCell id="KCcxgoW47jPmH_KGl_aa-12" value="&amp;nbsp;example.com?&amp;nbsp;" style="edgeStyle=orthogonalEdgeStyle;rounded=0;orthogonalLoop=1;jettySize=auto;html=1;" edge="1" parent="1" source="KCcxgoW47jPmH_KGl_aa-6" target="KCcxgoW47jPmH_KGl_aa-5">
          <mxGeometry relative="1" as="geometry">
            <Array as="points">
              <mxPoint x="420" y="388" />
              <mxPoint x="420" y="388" />
            </Array>
          </mxGeometry>
        </mxCell>
        <mxCell id="KCcxgoW47jPmH_KGl_aa-13" value="&amp;nbsp;54.22.33.77&amp;nbsp;" style="edgeStyle=orthogonalEdgeStyle;rounded=0;orthogonalLoop=1;jettySize=auto;html=1;" edge="1" parent="1" source="KCcxgoW47jPmH_KGl_aa-5" target="KCcxgoW47jPmH_KGl_aa-6">
          <mxGeometry relative="1" as="geometry">
            <Array as="points">
              <mxPoint x="414" y="418" />
              <mxPoint x="414" y="418" />
            </Array>
          </mxGeometry>
        </mxCell>
        <mxCell id="KCcxgoW47jPmH_KGl_aa-6" value="Client" style="sketch=0;outlineConnect=0;fontColor=#232F3E;gradientColor=none;fillColor=#232F3D;strokeColor=none;dashed=0;verticalLabelPosition=bottom;verticalAlign=top;align=center;html=1;fontSize=12;fontStyle=0;aspect=fixed;pointerEvents=1;shape=mxgraph.aws4.client;" vertex="1" parent="1">
          <mxGeometry x="242" y="370" width="78" height="76" as="geometry" />
        </mxCell>
        <mxCell id="KCcxgoW47jPmH_KGl_aa-7" value="VPC" style="points=[[0,0],[0.25,0],[0.5,0],[0.75,0],[1,0],[1,0.25],[1,0.5],[1,0.75],[1,1],[0.75,1],[0.5,1],[0.25,1],[0,1],[0,0.75],[0,0.5],[0,0.25]];outlineConnect=0;gradientColor=none;html=1;whiteSpace=wrap;fontSize=12;fontStyle=0;container=1;pointerEvents=0;collapsible=0;recursiveResize=0;shape=mxgraph.aws4.group;grIcon=mxgraph.aws4.group_vpc2;strokeColor=#8C4FFF;fillColor=none;verticalAlign=top;align=left;spacingLeft=30;fontColor=#AAB7B8;dashed=0;" vertex="1" parent="1">
          <mxGeometry x="420" y="647" width="270" height="140" as="geometry" />
        </mxCell>
      </root>
    </mxGraphModel>
  </diagram>
</mxfile>
